# xmcd CD database file
#
# Track frame offsets:
#	150
#	11923
#	24593
#	38357
#	48369
#	63571
#	79673
#	92571
#	104577
#	118237
#	132874
#	148579
#	160583
#
# Disc length: 2386 seconds
#
# Revision: 0
# Processed by: cddbd v1.4PL0 Copyright (c) Steve Scherf et al.
# Submitted via: CDex 1.40Release
#
DISCID=a609500d
DTITLE=Josh Logan - Something Strange
DYEAR=1900
DGENRE=Country
TTITLE0=She stand by me
TTITLE1=Drinking overtime
TTITLE2=Onr thing my lady never puts into words
TTITLE3=Old stomping ground
TTITLE4=Something strange
TTITLE5=Man who moaned the blues
TTITLE6=Hell yes I cheated
TTITLE7=Took everything but me
TTITLE8=Rumor town
TTITLE9=Trying to love the hurt
TTITLE10=Made your woman
TTITLE11=I was your fool
TTITLE12=Tired of being something that means nothing to you
EXTD=ID3G: 2
EXTT0=
EXTT1=
EXTT2=
EXTT3=
EXTT4=
EXTT5=
EXTT6=
EXTT7=
EXTT8=
EXTT9=
EXTT10=
EXTT11=
EXTT12=
PLAYORDER=
